# xmcd
#
# Track frame offsets:
#	150
#	25553
#	38577
#	66151
#	88027
#	113840
#	139867
#	160985
#
# Disc length: 2489 seconds
#
# Revision: 0
# Processed by: cddbd v1.5.1PL2 Copyright (c) Steve Scherf et al.
# Submitted via: EasyCDDAExtractor 8.0.1.1
#
DISCID=5f09b708
DTITLE=Carra - Live At The Brass Monkey, Sydney 2005-09-25
DYEAR=2005
DGENRE=Blues
TTITLE0=Meant To Be
TTITLE1=Jammin' Out
TTITLE2=The Ocean Jam
TTITLE3=Winter Sun
TTITLE4=The Travel Song
TTITLE5=You Are Magic
TTITLE6=The Sky Speaks To Me
TTITLE7=I Can Be The One
EXTD=
EXTT0=
EXTT1=
EXTT2=
EXTT3=
EXTT4=
EXTT5=
EXTT6=
EXTT7=
PLAYORDER=
